<svg width="593" height="155" viewBox="0 0 593 155" fill="none" xmlns="http://www.w3.org/2000/svg">
<path d="M61.743 2.99997C71.263 2.99997 79.383 4.58664 86.103 7.75998C92.9163 10.84 98.0963 15.2733 101.643 21.06C105.19 26.7533 106.963 33.4733 106.963 41.22C106.963 48.9666 105.19 55.7333 101.643 61.52C98.0963 67.2133 92.9163 71.6466 86.103 74.82C79.383 77.9 71.263 79.44 61.743 79.44H17.363V51.3H59.363C62.9097 51.3 65.663 50.4133 67.623 48.64C69.583 46.8666 70.563 44.3933 70.563 41.22C70.563 37.9533 69.583 35.48 67.623 33.8C65.663 32.0266 62.9097 31.14 59.363 31.14H20.443L36.683 14.9V108H0.562988V2.99997H61.743Z" fill="url(#paint0_linear_36_252)"/>
<path d="M119.54 109.68C115.993 109.68 112.727 108.84 109.74 107.16C106.847 105.48 104.56 103.193 102.88 100.3C101.2 97.3133 100.36 94.0467 100.36 90.5C100.36 86.86 101.2 83.5933 102.88 80.7C104.56 77.8066 106.847 75.52 109.74 73.84C112.727 72.16 115.993 71.32 119.54 71.32C123.18 71.32 126.447 72.16 129.34 73.84C132.233 75.52 134.52 77.8066 136.2 80.7C137.88 83.5933 138.72 86.86 138.72 90.5C138.72 94.0467 137.88 97.3133 136.2 100.3C134.52 103.193 132.233 105.48 129.34 107.16C126.447 108.84 123.18 109.68 119.54 109.68Z" fill="url(#paint1_linear_36_252)"/>
<path d="M174.298 90.36V61.66H245.838V90.36H174.298ZM234.778 2.99997L280.838 108H242.338L206.078 18.96H215.318L179.058 108H140.558L186.618 2.99997H234.778Z" fill="url(#paint2_linear_36_252)"/>
<path d="M301.851 109.68C298.304 109.68 295.037 108.84 292.051 107.16C289.157 105.48 286.871 103.193 285.191 100.3C283.511 97.3133 282.671 94.0467 282.671 90.5C282.671 86.86 283.511 83.5933 285.191 80.7C286.871 77.8066 289.157 75.52 292.051 73.84C295.037 72.16 298.304 71.32 301.851 71.32C305.491 71.32 308.757 72.16 311.651 73.84C314.544 75.52 316.831 77.8066 318.511 80.7C320.191 83.5933 321.031 86.86 321.031 90.5C321.031 94.0467 320.191 97.3133 318.511 100.3C316.831 103.193 314.544 105.48 311.651 107.16C308.757 108.84 305.491 109.68 301.851 109.68Z" fill="url(#paint3_linear_36_252)"/>
<path d="M367.808 2.99997V92.04L351.568 75.8H429.688V108H331.688V2.99997H367.808Z" fill="url(#paint4_linear_36_252)"/>
<path d="M454.083 109.68C450.536 109.68 447.27 108.84 444.283 107.16C441.39 105.48 439.103 103.193 437.423 100.3C435.743 97.3133 434.903 94.0467 434.903 90.5C434.903 86.86 435.743 83.5933 437.423 80.7C439.103 77.8066 441.39 75.52 444.283 73.84C447.27 72.16 450.536 71.32 454.083 71.32C457.723 71.32 460.99 72.16 463.883 73.84C466.776 75.52 469.063 77.8066 470.743 80.7C472.423 83.5933 473.263 86.86 473.263 90.5C473.263 94.0467 472.423 97.3133 470.743 100.3C469.063 103.193 466.776 105.48 463.883 107.16C460.99 108.84 457.723 109.68 454.083 109.68Z" fill="url(#paint5_linear_36_252)"/>
<path d="M480.421 73.42H517.101C517.474 75.4733 518.547 77.2467 520.321 78.74C522.094 80.14 524.521 81.26 527.601 82.1C530.681 82.8467 534.367 83.22 538.661 83.22C544.261 83.22 548.601 82.66 551.681 81.54C554.854 80.42 556.441 78.6 556.441 76.08C556.441 74.4 555.554 73 553.781 71.88C552.007 70.6666 548.367 69.8733 542.861 69.5L525.501 68.38C509.727 67.3533 498.341 63.9933 491.341 58.3C484.341 52.6066 480.841 45.0933 480.841 35.76C480.841 27.92 483.081 21.3866 487.561 16.16C492.041 10.9333 498.294 7.01331 506.321 4.39998C514.441 1.78665 523.914 0.47998 534.741 0.47998C545.287 0.47998 554.621 1.97331 562.741 4.95997C570.954 7.85331 577.441 11.96 582.201 17.28C587.054 22.6 589.714 28.8066 590.181 35.9H553.501C553.221 34.22 552.287 32.7733 550.701 31.56C549.207 30.3466 547.061 29.4133 544.261 28.76C541.461 28.1066 538.054 27.78 534.041 27.78C528.907 27.78 524.847 28.2933 521.861 29.32C518.967 30.3466 517.521 32.0267 517.521 34.36C517.521 35.9467 518.361 37.3 520.041 38.42C521.814 39.54 525.174 40.2866 530.121 40.66L549.721 41.92C559.987 42.5733 568.294 44.1133 574.641 46.54C580.987 48.8733 585.607 52.14 588.501 56.34C591.487 60.54 592.981 65.72 592.981 71.88C592.981 79.6266 590.694 86.3933 586.121 92.18C581.547 97.9666 575.107 102.493 566.801 105.76C558.587 108.933 548.974 110.52 537.961 110.52C526.574 110.52 516.587 108.98 508.001 105.9C499.414 102.82 492.694 98.48 487.841 92.88C483.081 87.28 480.607 80.7933 480.421 73.42Z" fill="url(#paint6_linear_36_252)"/>
<path d="M13.4259 131.25C14.9592 131.25 16.2759 131.517 17.3759 132.05C18.4926 132.567 19.3426 133.3 19.9259 134.25C20.5259 135.2 20.8259 136.308 20.8259 137.575C20.8259 138.842 20.5259 139.95 19.9259 140.9C19.3426 141.85 18.4926 142.592 17.3759 143.125C16.2759 143.642 14.9592 143.9 13.4259 143.9H5.2259V140.075H13.1759C14.0759 140.075 14.7842 139.858 15.3009 139.425C15.8176 138.975 16.0759 138.358 16.0759 137.575C16.0759 136.792 15.8176 136.183 15.3009 135.75C14.7842 135.3 14.0759 135.075 13.1759 135.075H5.6509L7.7759 132.875V150H3.0509V131.25H13.4259Z" fill="#727272"/>
<path d="M35.2251 150L34.6001 144.825L35.2751 142.875L34.6001 140.95L35.2251 135.75H40.0501L39.1751 142.875L40.0501 150H35.2251ZM36.3751 142.875C36.1251 144.392 35.6501 145.717 34.9501 146.85C34.2501 147.967 33.3668 148.842 32.3001 149.475C31.2335 150.092 30.0335 150.4 28.7001 150.4C27.3001 150.4 26.0668 150.083 25.0001 149.45C23.9501 148.817 23.1251 147.942 22.5251 146.825C21.9251 145.692 21.6251 144.375 21.6251 142.875C21.6251 141.375 21.9251 140.067 22.5251 138.95C23.1251 137.817 23.9501 136.933 25.0001 136.3C26.0668 135.667 27.3001 135.35 28.7001 135.35C30.0335 135.35 31.2335 135.667 32.3001 136.3C33.3668 136.917 34.2501 137.783 34.9501 138.9C35.6668 140.017 36.1418 141.342 36.3751 142.875ZM26.3251 142.875C26.3251 143.642 26.4835 144.325 26.8001 144.925C27.1168 145.508 27.5501 145.975 28.1001 146.325C28.6668 146.658 29.3168 146.825 30.0501 146.825C30.7835 146.825 31.4751 146.658 32.1251 146.325C32.7918 145.975 33.3751 145.508 33.8751 144.925C34.3751 144.325 34.7501 143.642 35.0001 142.875C34.7501 142.108 34.3751 141.433 33.8751 140.85C33.3751 140.25 32.7918 139.783 32.1251 139.45C31.4751 139.1 30.7835 138.925 30.0501 138.925C29.3168 138.925 28.6668 139.1 28.1001 139.45C27.5501 139.783 27.1168 140.25 26.8001 140.85C26.4835 141.433 26.3251 142.108 26.3251 142.875Z" fill="#727272"/>
<path d="M41.7353 135.75H46.4353L47.2853 140.875V150H42.6353V140.5L41.7353 135.75ZM54.0853 135.55V139.55C53.6353 139.45 53.1853 139.375 52.7353 139.325C52.3019 139.275 51.9019 139.25 51.5353 139.25C50.7353 139.25 50.0103 139.417 49.3603 139.75C48.7269 140.067 48.2186 140.575 47.8353 141.275C47.4686 141.975 47.2853 142.883 47.2853 144L46.3603 142.85C46.4769 141.833 46.6686 140.875 46.9353 139.975C47.2019 139.075 47.5686 138.283 48.0353 137.6C48.5019 136.9 49.0769 136.35 49.7603 135.95C50.4603 135.55 51.3019 135.35 52.2853 135.35C52.5686 135.35 52.8686 135.367 53.1853 135.4C53.5019 135.433 53.8019 135.483 54.0853 135.55Z" fill="#727272"/>
<path d="M54.4322 139.2V137.175L57.3822 136.1L59.3822 131.95H62.0322V135.75H68.1822V139.2H62.0322V143.9C62.0322 144.967 62.2488 145.717 62.6822 146.15C63.1155 146.567 63.8905 146.775 65.0072 146.775C65.7238 146.775 66.3488 146.717 66.8822 146.6C67.4322 146.467 67.9488 146.292 68.4322 146.075V149.6C67.9322 149.8 67.2738 149.983 66.4572 150.15C65.6572 150.317 64.8238 150.4 63.9572 150.4C62.4405 150.4 61.1905 150.158 60.2072 149.675C59.2405 149.192 58.5238 148.517 58.0572 147.65C57.6072 146.767 57.3822 145.733 57.3822 144.55V139.2H54.4322Z" fill="#727272"/>
<path d="M70.3027 135.55L72.6027 136.025L74.9277 135.55V150H70.3027V135.55ZM72.6277 134.25C71.811 134.25 71.1443 134.042 70.6277 133.625C70.111 133.192 69.8527 132.625 69.8527 131.925C69.8527 131.208 70.111 130.642 70.6277 130.225C71.1443 129.808 71.811 129.6 72.6277 129.6C73.461 129.6 74.1277 129.808 74.6277 130.225C75.1277 130.642 75.3777 131.208 75.3777 131.925C75.3777 132.625 75.1277 133.192 74.6277 133.625C74.1277 134.042 73.461 134.25 72.6277 134.25Z" fill="#727272"/>
<path d="M94.2948 144.075C94.1615 145.325 93.6949 146.425 92.8949 147.375C92.1115 148.325 91.0948 149.067 89.8448 149.6C88.6115 150.133 87.2198 150.4 85.6698 150.4C83.9532 150.4 82.4365 150.083 81.1198 149.45C79.8032 148.817 78.7782 147.933 78.0448 146.8C77.3115 145.667 76.9449 144.358 76.9449 142.875C76.9449 141.392 77.3115 140.083 78.0448 138.95C78.7782 137.817 79.8032 136.933 81.1198 136.3C82.4365 135.667 83.9532 135.35 85.6698 135.35C87.2198 135.35 88.6115 135.617 89.8448 136.15C91.0948 136.683 92.1115 137.425 92.8949 138.375C93.6949 139.308 94.1615 140.408 94.2948 141.675H89.6698C89.4865 140.758 89.0282 140.058 88.2948 139.575C87.5782 139.092 86.7032 138.85 85.6698 138.85C84.8532 138.85 84.1365 139.008 83.5199 139.325C82.9199 139.642 82.4532 140.1 82.1198 140.7C81.7865 141.3 81.6198 142.025 81.6198 142.875C81.6198 143.725 81.7865 144.45 82.1198 145.05C82.4532 145.65 82.9199 146.108 83.5199 146.425C84.1365 146.742 84.8532 146.9 85.6698 146.9C86.7198 146.9 87.6032 146.65 88.3199 146.15C89.0365 145.633 89.4865 144.942 89.6698 144.075H94.2948Z" fill="#727272"/>
<path d="M96.1687 135.55L98.4687 136.025L100.794 135.55V150H96.1687V135.55ZM98.4937 134.25C97.677 134.25 97.0103 134.042 96.4937 133.625C95.977 133.192 95.7187 132.625 95.7187 131.925C95.7187 131.208 95.977 130.642 96.4937 130.225C97.0103 129.808 97.677 129.6 98.4937 129.6C99.327 129.6 99.9937 129.808 100.494 130.225C100.994 130.642 101.244 131.208 101.244 131.925C101.244 132.625 100.994 133.192 100.494 133.625C99.9937 134.042 99.327 134.25 98.4937 134.25Z" fill="#727272"/>
<path d="M103.511 135.75H108.136V140.05L107.961 140.65V144.35L108.136 145.45V154.125H103.511V135.75ZM106.611 142.875C106.861 141.342 107.336 140.017 108.036 138.9C108.736 137.783 109.619 136.917 110.686 136.3C111.769 135.667 112.969 135.35 114.286 135.35C115.686 135.35 116.911 135.667 117.961 136.3C119.028 136.933 119.861 137.817 120.461 138.95C121.061 140.067 121.361 141.375 121.361 142.875C121.361 144.375 121.061 145.692 120.461 146.825C119.861 147.942 119.028 148.817 117.961 149.45C116.911 150.083 115.686 150.4 114.286 150.4C112.953 150.4 111.753 150.092 110.686 149.475C109.636 148.842 108.761 147.967 108.061 146.85C107.361 145.717 106.878 144.392 106.611 142.875ZM116.661 142.875C116.661 142.108 116.503 141.433 116.186 140.85C115.869 140.25 115.428 139.783 114.861 139.45C114.311 139.1 113.678 138.925 112.961 138.925C112.228 138.925 111.528 139.1 110.861 139.45C110.194 139.783 109.611 140.25 109.111 140.85C108.628 141.433 108.253 142.108 107.986 142.875C108.253 143.642 108.628 144.325 109.111 144.925C109.611 145.508 110.194 145.975 110.861 146.325C111.528 146.658 112.228 146.825 112.961 146.825C113.678 146.825 114.311 146.658 114.861 146.325C115.428 145.975 115.869 145.508 116.186 144.925C116.503 144.325 116.661 143.642 116.661 142.875Z" fill="#727272"/>
<path d="M136.376 150L135.751 144.825L136.426 142.875L135.751 140.95L136.376 135.75H141.201L140.326 142.875L141.201 150H136.376ZM137.526 142.875C137.276 144.392 136.801 145.717 136.101 146.85C135.401 147.967 134.518 148.842 133.451 149.475C132.385 150.092 131.185 150.4 129.851 150.4C128.451 150.4 127.218 150.083 126.151 149.45C125.101 148.817 124.276 147.942 123.676 146.825C123.076 145.692 122.776 144.375 122.776 142.875C122.776 141.375 123.076 140.067 123.676 138.95C124.276 137.817 125.101 136.933 126.151 136.3C127.218 135.667 128.451 135.35 129.851 135.35C131.185 135.35 132.385 135.667 133.451 136.3C134.518 136.917 135.401 137.783 136.101 138.9C136.818 140.017 137.293 141.342 137.526 142.875ZM127.476 142.875C127.476 143.642 127.635 144.325 127.951 144.925C128.268 145.508 128.701 145.975 129.251 146.325C129.818 146.658 130.468 146.825 131.201 146.825C131.935 146.825 132.626 146.658 133.276 146.325C133.943 145.975 134.526 145.508 135.026 144.925C135.526 144.325 135.901 143.642 136.151 142.875C135.901 142.108 135.526 141.433 135.026 140.85C134.526 140.25 133.943 139.783 133.276 139.45C132.626 139.1 131.935 138.925 131.201 138.925C130.468 138.925 129.818 139.1 129.251 139.45C128.701 139.783 128.268 140.25 127.951 140.85C127.635 141.433 127.476 142.108 127.476 142.875Z" fill="#727272"/>
<path d="M142.886 135.75H147.511L148.436 141.3V150H143.786V140.6L142.886 135.75ZM153.761 135.35C155.128 135.35 156.286 135.625 157.236 136.175C158.203 136.708 158.936 137.475 159.436 138.475C159.953 139.475 160.211 140.667 160.211 142.05V150H155.561V142.75C155.561 141.567 155.27 140.675 154.686 140.075C154.103 139.458 153.27 139.15 152.186 139.15C151.42 139.15 150.753 139.317 150.186 139.65C149.636 139.967 149.203 140.425 148.886 141.025C148.586 141.608 148.436 142.308 148.436 143.125L146.961 142.35C147.145 140.833 147.553 139.558 148.186 138.525C148.836 137.492 149.636 136.708 150.586 136.175C151.553 135.625 152.611 135.35 153.761 135.35Z" fill="#727272"/>
<path d="M161.15 139.2V137.175L164.1 136.1L166.1 131.95H168.75V135.75H174.9V139.2H168.75V143.9C168.75 144.967 168.966 145.717 169.4 146.15C169.833 146.567 170.608 146.775 171.725 146.775C172.441 146.775 173.066 146.717 173.6 146.6C174.15 146.467 174.666 146.292 175.15 146.075V149.6C174.65 149.8 173.991 149.983 173.175 150.15C172.375 150.317 171.541 150.4 170.675 150.4C169.158 150.4 167.908 150.158 166.925 149.675C165.958 149.192 165.241 148.517 164.775 147.65C164.325 146.767 164.1 145.733 164.1 144.55V139.2H161.15Z" fill="#727272"/>
<path d="M185.841 146.225V142.4H198.791V146.225H185.841ZM195.491 131.25L204.141 150H199.116L191.691 133.225H193.141L185.741 150H180.691L189.366 131.25H195.491Z" fill="#727272"/>
<path d="M210.768 150.375C209.435 150.375 208.301 150.108 207.368 149.575C206.435 149.025 205.718 148.25 205.218 147.25C204.735 146.25 204.493 145.067 204.493 143.7V135.75H209.143V143.025C209.143 144.175 209.418 145.058 209.968 145.675C210.518 146.292 211.31 146.6 212.343 146.6C213.11 146.6 213.76 146.442 214.293 146.125C214.826 145.808 215.235 145.35 215.518 144.75C215.818 144.15 215.968 143.442 215.968 142.625L217.418 143.4C217.251 144.9 216.851 146.175 216.218 147.225C215.601 148.258 214.818 149.042 213.868 149.575C212.935 150.108 211.901 150.375 210.768 150.375ZM216.868 150L215.968 144.45V135.75H220.618V145.15L221.518 150H216.868Z" fill="#727272"/>
<path d="M222.135 139.2V137.175L225.085 136.1L227.085 131.95H229.735V135.75H235.885V139.2H229.735V143.9C229.735 144.967 229.951 145.717 230.385 146.15C230.818 146.567 231.593 146.775 232.71 146.775C233.426 146.775 234.051 146.717 234.585 146.6C235.135 146.467 235.651 146.292 236.135 146.075V149.6C235.635 149.8 234.976 149.983 234.16 150.15C233.36 150.317 232.526 150.4 231.66 150.4C230.143 150.4 228.893 150.158 227.91 149.675C226.943 149.192 226.226 148.517 225.76 147.65C225.31 146.767 225.085 145.733 225.085 144.55V139.2H222.135Z" fill="#727272"/>
<path d="M245.841 150.4C244.041 150.4 242.466 150.083 241.116 149.45C239.766 148.817 238.716 147.933 237.966 146.8C237.216 145.667 236.841 144.358 236.841 142.875C236.841 141.375 237.216 140.067 237.966 138.95C238.716 137.817 239.766 136.933 241.116 136.3C242.483 135.667 244.058 135.35 245.841 135.35C247.641 135.35 249.216 135.667 250.566 136.3C251.933 136.933 252.991 137.817 253.741 138.95C254.491 140.067 254.866 141.375 254.866 142.875C254.866 144.375 254.491 145.692 253.741 146.825C252.991 147.942 251.933 148.817 250.566 149.45C249.216 150.083 247.641 150.4 245.841 150.4ZM245.841 146.9C246.758 146.9 247.533 146.742 248.166 146.425C248.816 146.092 249.308 145.625 249.641 145.025C249.991 144.425 250.166 143.708 250.166 142.875C250.166 142.042 249.991 141.325 249.641 140.725C249.308 140.125 248.816 139.667 248.166 139.35C247.533 139.017 246.758 138.85 245.841 138.85C244.958 138.85 244.191 139.017 243.541 139.35C242.891 139.667 242.391 140.125 242.041 140.725C241.691 141.325 241.516 142.042 241.516 142.875C241.516 143.708 241.691 144.425 242.041 145.025C242.391 145.625 242.891 146.092 243.541 146.425C244.191 146.742 244.958 146.9 245.841 146.9Z" fill="#727272"/>
<path d="M256.147 135.75H260.772L261.697 141.3V150H257.047V140.6L256.147 135.75ZM266.697 135.35C267.997 135.35 269.097 135.625 269.997 136.175C270.914 136.708 271.605 137.475 272.072 138.475C272.555 139.475 272.797 140.667 272.797 142.05V150H268.147V142.75C268.147 141.567 267.889 140.675 267.372 140.075C266.855 139.458 266.097 139.15 265.097 139.15C264.397 139.15 263.789 139.317 263.272 139.65C262.772 139.967 262.38 140.425 262.097 141.025C261.83 141.608 261.697 142.308 261.697 143.125L260.222 142.35C260.405 140.833 260.797 139.558 261.397 138.525C262.014 137.492 262.772 136.708 263.672 136.175C264.589 135.625 265.597 135.35 266.697 135.35ZM277.772 135.35C279.072 135.35 280.18 135.625 281.097 136.175C282.014 136.708 282.705 137.475 283.172 138.475C283.655 139.475 283.897 140.667 283.897 142.05V150H279.247V142.75C279.247 141.567 278.989 140.675 278.472 140.075C277.955 139.458 277.197 139.15 276.197 139.15C275.497 139.15 274.889 139.317 274.372 139.65C273.872 139.967 273.48 140.425 273.197 141.025C272.93 141.608 272.797 142.308 272.797 143.125L271.322 142.35C271.505 140.833 271.897 139.558 272.497 138.525C273.097 137.492 273.855 136.708 274.772 136.175C275.689 135.625 276.689 135.35 277.772 135.35Z" fill="#727272"/>
<path d="M299.38 150L298.755 144.825L299.43 142.875L298.755 140.95L299.38 135.75H304.205L303.33 142.875L304.205 150H299.38ZM300.53 142.875C300.28 144.392 299.805 145.717 299.105 146.85C298.405 147.967 297.521 148.842 296.455 149.475C295.388 150.092 294.188 150.4 292.855 150.4C291.455 150.4 290.221 150.083 289.155 149.45C288.105 148.817 287.28 147.942 286.68 146.825C286.08 145.692 285.78 144.375 285.78 142.875C285.78 141.375 286.08 140.067 286.68 138.95C287.28 137.817 288.105 136.933 289.155 136.3C290.221 135.667 291.455 135.35 292.855 135.35C294.188 135.35 295.388 135.667 296.455 136.3C297.521 136.917 298.405 137.783 299.105 138.9C299.821 140.017 300.296 141.342 300.53 142.875ZM290.48 142.875C290.48 143.642 290.638 144.325 290.955 144.925C291.271 145.508 291.705 145.975 292.255 146.325C292.821 146.658 293.471 146.825 294.205 146.825C294.938 146.825 295.63 146.658 296.28 146.325C296.946 145.975 297.53 145.508 298.03 144.925C298.53 144.325 298.905 143.642 299.155 142.875C298.905 142.108 298.53 141.433 298.03 140.85C297.53 140.25 296.946 139.783 296.28 139.45C295.63 139.1 294.938 138.925 294.205 138.925C293.471 138.925 292.821 139.1 292.255 139.45C291.705 139.783 291.271 140.25 290.955 140.85C290.638 141.433 290.48 142.108 290.48 142.875Z" fill="#727272"/>
<path d="M305.19 139.2V137.175L308.14 136.1L310.14 131.95H312.79V135.75H318.94V139.2H312.79V143.9C312.79 144.967 313.007 145.717 313.44 146.15C313.873 146.567 314.648 146.775 315.765 146.775C316.482 146.775 317.107 146.717 317.64 146.6C318.19 146.467 318.707 146.292 319.19 146.075V149.6C318.69 149.8 318.032 149.983 317.215 150.15C316.415 150.317 315.582 150.4 314.715 150.4C313.198 150.4 311.948 150.158 310.965 149.675C309.998 149.192 309.282 148.517 308.815 147.65C308.365 146.767 308.14 145.733 308.14 144.55V139.2H305.19Z" fill="#727272"/>
<path d="M328.772 150.4C327.072 150.4 325.547 150.083 324.197 149.45C322.863 148.817 321.813 147.933 321.047 146.8C320.28 145.667 319.897 144.342 319.897 142.825C319.897 141.342 320.263 140.042 320.997 138.925C321.73 137.808 322.738 136.933 324.022 136.3C325.322 135.667 326.788 135.35 328.422 135.35C330.088 135.35 331.522 135.717 332.722 136.45C333.922 137.183 334.847 138.217 335.497 139.55C336.147 140.883 336.472 142.45 336.472 144.25H323.622V141.325H333.922L332.247 142.375C332.197 141.592 332.005 140.933 331.672 140.4C331.355 139.85 330.93 139.433 330.397 139.15C329.863 138.85 329.23 138.7 328.497 138.7C327.697 138.7 327.005 138.858 326.422 139.175C325.838 139.492 325.38 139.933 325.047 140.5C324.73 141.067 324.572 141.725 324.572 142.475C324.572 143.425 324.78 144.233 325.197 144.9C325.63 145.567 326.247 146.075 327.047 146.425C327.863 146.775 328.855 146.95 330.022 146.95C331.088 146.95 332.155 146.808 333.222 146.525C334.288 146.225 335.247 145.808 336.097 145.275V148.3C335.13 148.967 334.022 149.483 332.772 149.85C331.538 150.217 330.205 150.4 328.772 150.4Z" fill="#727272"/>
<path d="M351.535 150L350.91 144.625L351.76 142.925L350.935 140.775L352.085 130.75H356.91L355.485 142.525L356.335 150H351.535ZM352.61 142.875C352.36 144.392 351.885 145.717 351.185 146.85C350.485 147.967 349.602 148.842 348.535 149.475C347.468 150.092 346.268 150.4 344.935 150.4C343.535 150.4 342.302 150.083 341.235 149.45C340.185 148.817 339.36 147.942 338.76 146.825C338.16 145.692 337.86 144.375 337.86 142.875C337.86 141.375 338.16 140.067 338.76 138.95C339.36 137.817 340.185 136.933 341.235 136.3C342.302 135.667 343.535 135.35 344.935 135.35C346.268 135.35 347.468 135.667 348.535 136.3C349.602 136.917 350.485 137.783 351.185 138.9C351.902 140.017 352.377 141.342 352.61 142.875ZM342.56 142.875C342.56 143.642 342.718 144.325 343.035 144.925C343.352 145.508 343.785 145.975 344.335 146.325C344.902 146.658 345.552 146.825 346.285 146.825C347.018 146.825 347.71 146.658 348.36 146.325C349.027 145.975 349.61 145.508 350.11 144.925C350.61 144.325 350.985 143.642 351.235 142.875C350.985 142.108 350.61 141.433 350.11 140.85C349.61 140.25 349.027 139.783 348.36 139.45C347.71 139.1 347.018 138.925 346.285 138.925C345.552 138.925 344.902 139.1 344.335 139.45C343.785 139.783 343.352 140.25 343.035 140.85C342.718 141.433 342.56 142.108 342.56 142.875Z" fill="#727272"/>
<path d="M369.768 131.25V147.9L367.643 145.825H381.693V150H365.043V131.25H369.768Z" fill="#727272"/>
<path d="M383.364 135.55L385.664 136.025L387.989 135.55V150H383.364V135.55ZM385.689 134.25C384.872 134.25 384.205 134.042 383.689 133.625C383.172 133.192 382.914 132.625 382.914 131.925C382.914 131.208 383.172 130.642 383.689 130.225C384.205 129.808 384.872 129.6 385.689 129.6C386.522 129.6 387.189 129.808 387.689 130.225C388.189 130.642 388.439 131.208 388.439 131.925C388.439 132.625 388.189 133.192 387.689 133.625C387.189 134.042 386.522 134.25 385.689 134.25Z" fill="#727272"/>
<path d="M406.756 145.425C406.756 146.492 406.439 147.4 405.806 148.15C405.189 148.883 404.281 149.442 403.081 149.825C401.881 150.208 400.423 150.4 398.706 150.4C396.956 150.4 395.423 150.183 394.106 149.75C392.789 149.317 391.764 148.708 391.031 147.925C390.298 147.142 389.906 146.233 389.856 145.2H394.581C394.681 145.617 394.914 145.983 395.281 146.3C395.664 146.617 396.156 146.858 396.756 147.025C397.356 147.175 398.064 147.25 398.881 147.25C399.981 147.25 400.814 147.133 401.381 146.9C401.948 146.667 402.231 146.317 402.231 145.85C402.231 145.5 402.023 145.233 401.606 145.05C401.206 144.867 400.481 144.733 399.431 144.65L396.831 144.45C395.198 144.333 393.898 144.075 392.931 143.675C391.964 143.275 391.273 142.767 390.856 142.15C390.456 141.533 390.256 140.842 390.256 140.075C390.256 139.025 390.581 138.15 391.231 137.45C391.898 136.75 392.814 136.225 393.981 135.875C395.148 135.525 396.514 135.35 398.081 135.35C399.648 135.35 401.039 135.558 402.256 135.975C403.489 136.392 404.473 136.967 405.206 137.7C405.956 138.433 406.381 139.292 406.481 140.275H401.756C401.689 139.942 401.506 139.633 401.206 139.35C400.923 139.067 400.506 138.842 399.956 138.675C399.423 138.492 398.723 138.4 397.856 138.4C396.873 138.4 396.123 138.508 395.606 138.725C395.089 138.942 394.831 139.258 394.831 139.675C394.831 139.992 394.989 140.242 395.306 140.425C395.623 140.608 396.223 140.742 397.106 140.825L400.481 141.075C402.081 141.208 403.331 141.467 404.231 141.85C405.148 142.217 405.798 142.7 406.181 143.3C406.564 143.9 406.756 144.608 406.756 145.425Z" fill="#727272"/>
<path d="M407.22 139.2V137.175L410.17 136.1L412.17 131.95H414.82V135.75H420.97V139.2H414.82V143.9C414.82 144.967 415.037 145.717 415.47 146.15C415.903 146.567 416.678 146.775 417.795 146.775C418.512 146.775 419.137 146.717 419.67 146.6C420.22 146.467 420.737 146.292 421.22 146.075V149.6C420.72 149.8 420.062 149.983 419.245 150.15C418.445 150.317 417.612 150.4 416.745 150.4C415.228 150.4 413.978 150.158 412.995 149.675C412.028 149.192 411.312 148.517 410.845 147.65C410.395 146.767 410.17 145.733 410.17 144.55V139.2H407.22Z" fill="#727272"/>
<path d="M423.091 135.55L425.391 136.025L427.716 135.55V150H423.091V135.55ZM425.416 134.25C424.599 134.25 423.932 134.042 423.416 133.625C422.899 133.192 422.641 132.625 422.641 131.925C422.641 131.208 422.899 130.642 423.416 130.225C423.932 129.808 424.599 129.6 425.416 129.6C426.249 129.6 426.916 129.808 427.416 130.225C427.916 130.642 428.166 131.208 428.166 131.925C428.166 132.625 427.916 133.192 427.416 133.625C426.916 134.042 426.249 134.25 425.416 134.25Z" fill="#727272"/>
<path d="M429.758 135.75H434.383L435.308 141.3V150H430.658V140.6L429.758 135.75ZM440.633 135.35C441.999 135.35 443.158 135.625 444.108 136.175C445.074 136.708 445.808 137.475 446.308 138.475C446.824 139.475 447.083 140.667 447.083 142.05V150H442.433V142.75C442.433 141.567 442.141 140.675 441.558 140.075C440.974 139.458 440.141 139.15 439.058 139.15C438.291 139.15 437.624 139.317 437.058 139.65C436.508 139.967 436.074 140.425 435.758 141.025C435.458 141.608 435.308 142.308 435.308 143.125L433.833 142.35C434.016 140.833 434.424 139.558 435.058 138.525C435.708 137.492 436.508 136.708 437.458 136.175C438.424 135.625 439.483 135.35 440.633 135.35Z" fill="#727272"/>
<path d="M462.166 146.425V144L462.316 143.425V140.125L462.166 139.6V135.75H466.816V146.2C466.816 147.967 466.407 149.467 465.591 150.7C464.791 151.95 463.674 152.9 462.241 153.55C460.807 154.2 459.141 154.525 457.241 154.525C455.924 154.525 454.707 154.35 453.591 154C452.491 153.667 451.399 153.158 450.316 152.475V148.925C451.332 149.692 452.399 150.242 453.516 150.575C454.649 150.925 455.791 151.1 456.941 151.1C458.624 151.1 459.916 150.725 460.816 149.975C461.716 149.208 462.166 148.025 462.166 146.425ZM455.866 148.6C454.532 148.6 453.341 148.325 452.291 147.775C451.241 147.225 450.416 146.458 449.816 145.475C449.216 144.475 448.916 143.308 448.916 141.975C448.916 140.642 449.216 139.483 449.816 138.5C450.416 137.5 451.241 136.725 452.291 136.175C453.341 135.625 454.532 135.35 455.866 135.35C456.866 135.35 457.782 135.508 458.616 135.825C459.449 136.125 460.191 136.525 460.841 137.025C461.491 137.525 462.041 138.075 462.491 138.675C462.941 139.258 463.282 139.85 463.516 140.45C463.749 141.033 463.866 141.558 463.866 142.025C463.866 142.642 463.682 143.333 463.316 144.1C462.949 144.85 462.416 145.567 461.716 146.25C461.032 146.933 460.199 147.5 459.216 147.95C458.232 148.383 457.116 148.6 455.866 148.6ZM457.416 145.375C458.449 145.375 459.374 145.1 460.191 144.55C461.007 144 461.716 143.142 462.316 141.975C461.716 140.792 460.999 139.925 460.166 139.375C459.349 138.825 458.432 138.55 457.416 138.55C456.632 138.55 455.949 138.692 455.366 138.975C454.799 139.258 454.357 139.658 454.041 140.175C453.741 140.675 453.591 141.275 453.591 141.975C453.591 142.658 453.741 143.258 454.041 143.775C454.341 144.275 454.774 144.667 455.341 144.95C455.924 145.233 456.616 145.375 457.416 145.375Z" fill="#727272"/>
<path d="M474.907 143.875H479.682C479.765 144.442 480.023 144.942 480.457 145.375C480.89 145.808 481.465 146.142 482.182 146.375C482.915 146.608 483.765 146.725 484.732 146.725C486.115 146.725 487.198 146.533 487.982 146.15C488.782 145.767 489.182 145.225 489.182 144.525C489.182 143.992 488.948 143.583 488.482 143.3C488.032 143 487.182 142.783 485.932 142.65L482.307 142.275C479.79 142.025 477.965 141.442 476.832 140.525C475.715 139.608 475.157 138.358 475.157 136.775C475.157 135.525 475.523 134.458 476.257 133.575C477.007 132.692 478.048 132.017 479.382 131.55C480.732 131.083 482.307 130.85 484.107 130.85C485.89 130.85 487.465 131.108 488.832 131.625C490.198 132.142 491.29 132.858 492.107 133.775C492.923 134.692 493.365 135.767 493.432 137H488.657C488.59 136.483 488.357 136.05 487.957 135.7C487.573 135.333 487.048 135.05 486.382 134.85C485.732 134.633 484.948 134.525 484.032 134.525C482.765 134.525 481.757 134.708 481.007 135.075C480.273 135.425 479.907 135.933 479.907 136.6C479.907 137.1 480.123 137.492 480.557 137.775C481.007 138.058 481.798 138.267 482.932 138.4L486.757 138.825C488.507 139.008 489.907 139.3 490.957 139.7C492.007 140.1 492.765 140.65 493.232 141.35C493.698 142.05 493.932 142.933 493.932 144C493.932 145.283 493.54 146.408 492.757 147.375C491.99 148.325 490.907 149.067 489.507 149.6C488.123 150.133 486.507 150.4 484.657 150.4C482.74 150.4 481.057 150.125 479.607 149.575C478.173 149.025 477.04 148.267 476.207 147.3C475.39 146.317 474.957 145.175 474.907 143.875Z" fill="#727272"/>
<path d="M504.158 150.4C502.458 150.4 500.933 150.083 499.583 149.45C498.25 148.817 497.2 147.933 496.433 146.8C495.666 145.667 495.283 144.342 495.283 142.825C495.283 141.342 495.65 140.042 496.383 138.925C497.117 137.808 498.125 136.933 499.408 136.3C500.708 135.667 502.175 135.35 503.808 135.35C505.475 135.35 506.908 135.717 508.108 136.45C509.308 137.183 510.233 138.217 510.883 139.55C511.533 140.883 511.858 142.45 511.858 144.25H499.008V141.325H509.308L507.633 142.375C507.583 141.592 507.391 140.933 507.058 140.4C506.741 139.85 506.316 139.433 505.783 139.15C505.25 138.85 504.617 138.7 503.883 138.7C503.083 138.7 502.391 138.858 501.808 139.175C501.225 139.492 500.767 139.933 500.433 140.5C500.116 141.067 499.958 141.725 499.958 142.475C499.958 143.425 500.166 144.233 500.583 144.9C501.016 145.567 501.633 146.075 502.433 146.425C503.25 146.775 504.241 146.95 505.408 146.95C506.475 146.95 507.541 146.808 508.608 146.525C509.675 146.225 510.633 145.808 511.483 145.275V148.3C510.516 148.967 509.408 149.483 508.158 149.85C506.925 150.217 505.591 150.4 504.158 150.4Z" fill="#727272"/>
<path d="M513.173 135.75H517.873L518.723 140.875V150H514.073V140.5L513.173 135.75ZM525.523 135.55V139.55C525.073 139.45 524.623 139.375 524.173 139.325C523.739 139.275 523.339 139.25 522.973 139.25C522.173 139.25 521.448 139.417 520.798 139.75C520.164 140.067 519.656 140.575 519.273 141.275C518.906 141.975 518.723 142.883 518.723 144L517.798 142.85C517.914 141.833 518.106 140.875 518.373 139.975C518.639 139.075 519.006 138.283 519.473 137.6C519.939 136.9 520.514 136.35 521.198 135.95C521.898 135.55 522.739 135.35 523.723 135.35C524.006 135.35 524.306 135.367 524.623 135.4C524.939 135.433 525.239 135.483 525.523 135.55Z" fill="#727272"/>
<path d="M535.948 147.825L534.323 147.8L539.473 135.75H544.423L537.698 150H532.423L525.698 135.75H530.823L535.948 147.825Z" fill="#727272"/>
<path d="M545.72 135.55L548.02 136.025L550.345 135.55V150H545.72V135.55ZM548.045 134.25C547.228 134.25 546.561 134.042 546.045 133.625C545.528 133.192 545.27 132.625 545.27 131.925C545.27 131.208 545.528 130.642 546.045 130.225C546.561 129.808 547.228 129.6 548.045 129.6C548.878 129.6 549.545 129.808 550.045 130.225C550.545 130.642 550.795 131.208 550.795 131.925C550.795 132.625 550.545 133.192 550.045 133.625C549.545 134.042 548.878 134.25 548.045 134.25Z" fill="#727272"/>
<path d="M569.712 144.075C569.579 145.325 569.112 146.425 568.312 147.375C567.528 148.325 566.512 149.067 565.262 149.6C564.029 150.133 562.637 150.4 561.087 150.4C559.37 150.4 557.853 150.083 556.537 149.45C555.22 148.817 554.195 147.933 553.462 146.8C552.729 145.667 552.362 144.358 552.362 142.875C552.362 141.392 552.729 140.083 553.462 138.95C554.195 137.817 555.22 136.933 556.537 136.3C557.853 135.667 559.37 135.35 561.087 135.35C562.637 135.35 564.029 135.617 565.262 136.15C566.512 136.683 567.528 137.425 568.312 138.375C569.112 139.308 569.579 140.408 569.712 141.675H565.087C564.904 140.758 564.445 140.058 563.712 139.575C562.995 139.092 562.12 138.85 561.087 138.85C560.27 138.85 559.553 139.008 558.937 139.325C558.337 139.642 557.87 140.1 557.537 140.7C557.203 141.3 557.037 142.025 557.037 142.875C557.037 143.725 557.203 144.45 557.537 145.05C557.87 145.65 558.337 146.108 558.937 146.425C559.553 146.742 560.27 146.9 561.087 146.9C562.137 146.9 563.02 146.65 563.737 146.15C564.453 145.633 564.904 144.942 565.087 144.075H569.712Z" fill="#727272"/>
<path d="M579.761 150.4C578.061 150.4 576.536 150.083 575.186 149.45C573.852 148.817 572.802 147.933 572.036 146.8C571.269 145.667 570.886 144.342 570.886 142.825C570.886 141.342 571.252 140.042 571.986 138.925C572.719 137.808 573.727 136.933 575.011 136.3C576.311 135.667 577.777 135.35 579.411 135.35C581.077 135.35 582.511 135.717 583.711 136.45C584.911 137.183 585.836 138.217 586.486 139.55C587.136 140.883 587.461 142.45 587.461 144.25H574.611V141.325H584.911L583.236 142.375C583.186 141.592 582.994 140.933 582.661 140.4C582.344 139.85 581.919 139.433 581.386 139.15C580.852 138.85 580.219 138.7 579.486 138.7C578.686 138.7 577.994 138.858 577.411 139.175C576.827 139.492 576.369 139.933 576.036 140.5C575.719 141.067 575.561 141.725 575.561 142.475C575.561 143.425 575.769 144.233 576.186 144.9C576.619 145.567 577.236 146.075 578.036 146.425C578.852 146.775 579.844 146.95 581.011 146.95C582.077 146.95 583.144 146.808 584.211 146.525C585.277 146.225 586.236 145.808 587.086 145.275V148.3C586.119 148.967 585.011 149.483 583.761 149.85C582.527 150.217 581.194 150.4 579.761 150.4Z" fill="#727272"/>
<defs>
<linearGradient id="paint0_linear_36_252" x1="463" y1="125.181" x2="179.451" y2="-98.5151" gradientUnits="userSpaceOnUse">
<stop stop-color="#FFC26F"/>
<stop offset="1" stop-color="#EC5660"/>
</linearGradient>
<linearGradient id="paint1_linear_36_252" x1="463" y1="125.181" x2="179.451" y2="-98.5151" gradientUnits="userSpaceOnUse">
<stop stop-color="#FFC26F"/>
<stop offset="1" stop-color="#EC5660"/>
</linearGradient>
<linearGradient id="paint2_linear_36_252" x1="463" y1="125.181" x2="179.451" y2="-98.5151" gradientUnits="userSpaceOnUse">
<stop stop-color="#FFC26F"/>
<stop offset="1" stop-color="#EC5660"/>
</linearGradient>
<linearGradient id="paint3_linear_36_252" x1="463" y1="125.181" x2="179.451" y2="-98.5151" gradientUnits="userSpaceOnUse">
<stop stop-color="#FFC26F"/>
<stop offset="1" stop-color="#EC5660"/>
</linearGradient>
<linearGradient id="paint4_linear_36_252" x1="463" y1="125.181" x2="179.451" y2="-98.5151" gradientUnits="userSpaceOnUse">
<stop stop-color="#FFC26F"/>
<stop offset="1" stop-color="#EC5660"/>
</linearGradient>
<linearGradient id="paint5_linear_36_252" x1="463" y1="125.181" x2="179.451" y2="-98.5151" gradientUnits="userSpaceOnUse">
<stop stop-color="#FFC26F"/>
<stop offset="1" stop-color="#EC5660"/>
</linearGradient>
<linearGradient id="paint6_linear_36_252" x1="463" y1="125.181" x2="179.451" y2="-98.5151" gradientUnits="userSpaceOnUse">
<stop stop-color="#FFC26F"/>
<stop offset="1" stop-color="#EC5660"/>
</linearGradient>
</defs>
</svg>
